# xmcd CD database file
#
# Track frame offsets:
#	150
#	18010
#	46378
#	68501
#	98265
#	120985
#	143946
#	157750
#	182696
#	205147
#	212935
#	235521
#	259121
#	290008
#
# Disc length: 4018 seconds
#
# Revision: 0
# Processed by: cddbd v1.5.2PL0 Copyright (c) Steve Scherf et al.
# Submitted via: CDex 1.51
#
DISCID=b20fb00e
DTITLE=radio.string.quartet - Celebrating the Mahavishnu Orchestra
DYEAR=2006
DGENRE=Jazz
TTITLE0=Open Country Joy
TTITLE1=A Lotus on Irish Stream
TTITLE2=Vital Transformation
TTITLE3=The Dance of Maya
TTITLE4=Dawn
TTITLE5=Dream
TTITLE6=Thousand Island Park
TTITLE7=Radio String Quartett - Meeting of the Spirits
TTITLE8=Celestial Terrestrial Commuters
TTITLE9=Hope
TTITLE10=Radio String Quartett - Birds of Fire
TTITLE11=You know, you know
TTITLE12=Sanctuary
TTITLE13=Resolution
EXTD=YEAR: 2006
EXTT0=
EXTT1=
EXTT2=
EXTT3=
EXTT4=
EXTT5=
EXTT6=
EXTT7=
EXTT8=
EXTT9=
EXTT10=
EXTT11=
EXTT12=
EXTT13=
PLAYORDER=
